# xmcd CD database file
#
# Track frame offsets:
#	150
#	29063
#	59706
#	87026
#	115602
#	147133
#	177453
#	205522
#	234102
#	263503
#
# Disc length: 3896 seconds
#
# Revision: 0
# Processed by: cddbd v1.5.2PL0 Copyright (c) Steve Scherf et al.
# Submitted via: CDex 1.51
#
DISCID=7f0f360a
DTITLE=2002 - Wings II - Return To Freedom
DYEAR=2009
DGENRE=New Age
TTITLE0=Return To Freedom
TTITLE1=Memory Of The Sky
TTITLE2=Lady Of The Lake
TTITLE3=Higher Destination
TTITLE4=Athena
TTITLE5=Firebird
TTITLE6=Breathing Light
TTITLE7=Stillpoint
TTITLE8=Sunlight Through A Feather
TTITLE9=The End Is A Beginning
EXTD=YEAR: 2009
EXTT0=
EXTT1=
EXTT2=
EXTT3=
EXTT4=
EXTT5=
EXTT6=
EXTT7=
EXTT8=
EXTT9=
PLAYORDER=
